<svg width="21" height="19" viewBox="0 0 21 19" fill="none" xmlns="http://www.w3.org/2000/svg">
<path d="M8.96973 18C13.1429 18 16.5697 13.6065 16.9371 7.99993C16.9732 7.44882 16.522 7 15.9697 7H1.96973C1.41744 7 0.966219 7.44882 1.00233 7.99992C1.36975 13.6065 4.79659 18 8.96973 18Z" stroke="#CFE2FF" stroke-width="2"/>
<path d="M8.96973 15C11.1789 15 12.9697 13.2091 12.9697 11H4.96973C4.96973 13.2091 6.76059 15 8.96973 15Z" fill="#CFE2FF" stroke="#CFE2FF" stroke-width="2"/>
<path d="M6.22187 0.999683L5.96552 1.28491C5.55968 1.73646 5.6171 2.43637 6.09112 2.81574L6.19297 2.89725C6.65497 3.267 6.66883 3.96505 6.22187 4.35284" stroke="#CFE2FF" stroke-width="2" stroke-linecap="round"/>
<path d="M9.22187 0.999683L8.96552 1.28491C8.55968 1.73646 8.6171 2.43637 9.09112 2.81574L9.19297 2.89725C9.65497 3.267 9.66883 3.96505 9.22187 4.35284" stroke="#CFE2FF" stroke-width="2" stroke-linecap="round"/>
<path d="M12.2219 0.999683L11.9655 1.28491C11.5597 1.73646 11.6171 2.43637 12.0911 2.81574L12.193 2.89725C12.655 3.267 12.6688 3.96505 12.2219 4.35284" stroke="#CFE2FF" stroke-width="2" stroke-linecap="round"/>
<path d="M14.4697 15C17.4435 14.9634 19.9977 13.2692 19.9697 11C19.9418 8.73076 17.9433 7.02925 14.9695 7.06588" stroke="#CFE2FF" stroke-width="2"/>
</svg>
