<svg width="24" height="24" viewBox="0 0 24 24" fill="none" xmlns="http://www.w3.org/2000/svg">
<path d="M22 16.2549L23 16.2552V16.2549H22ZM21 17.2549V18.2549V17.2549ZM8.8291 17.2549V16.2549H8.55192L8.31429 16.3976L8.8291 17.2549ZM4.51465 19.8457L3.99984 18.9884L3.99977 18.9884L4.51465 19.8457ZM3 18.9893H2L2 18.9897L3 18.9893ZM4 5V4V5ZM21 5V6H22H23C23 4.89543 22.1046 4 21 4V5ZM22 6H21V16.2549H22H23V6H22ZM22 16.2549L21 16.2545V16.2549V17.2549V18.2549C22.1048 18.2549 22.9996 17.359 23 16.2552L22 16.2549ZM21 17.2549V16.2549H8.8291V17.2549V18.2549H21V17.2549ZM8.8291 17.2549L8.31429 16.3976L3.99984 18.9884L4.51465 19.8457L5.02946 20.703L9.34391 18.1122L8.8291 17.2549ZM4.51465 19.8457L3.99977 18.9884L4 18.9888L3 18.9893L2 18.9897C2.00064 20.5446 3.69711 21.5032 5.02953 20.703L4.51465 19.8457ZM3 18.9893H4V6H3H2V18.9893H3ZM3 6H4V6V5V4C2.89543 4 2 4.89543 2 6H3ZM4 5V6H21V5V4H4V5Z" fill="#2567CA"/>
<circle cx="7.5" cy="11.5" r="1.5" fill="#2567CA"/>
<circle cx="12.5" cy="11.5" r="1.5" fill="#2567CA"/>
<circle cx="17.5" cy="11.5" r="1.5" fill="#2567CA"/>
</svg>
